<?xml version="1.0" standalone="no"?>
<!DOCTYPE svg PUBLIC "-//W3C//DTD SVG 20010904//EN"
 "http://www.w3.org/TR/2001/REC-SVG-20010904/DTD/svg10.dtd">
<svg version="1.0" xmlns="http://www.w3.org/2000/svg"
 width="1280.000000pt" height="1280.000000pt" viewBox="0 0 1280.000000 1280.000000"
 preserveAspectRatio="xMidYMid meet">

<g transform="translate(0.000000,1280.000000) scale(0.100000,-0.100000)"
fill="#000000" stroke="none">
<path d="M6678 11935 c-3 -3 -68 -12 -144 -20 -205 -22 -270 -31 -284 -40 -7
-5 -47 -12 -89 -16 -42 -5 -110 -16 -151 -24 -138 -30 -133 -30 -153 3 -10 19
-29 33 -46 37 -70 15 -199 22 -269 14 -131 -15 -282 -28 -402 -34 -63 -3 -139
-11 -169 -17 -30 -5 -75 -7 -99 -4 -24 3 -51 2 -61 -3 -9 -5 -59 -15 -111 -21
-52 -6 -126 -16 -165 -21 -38 -6 -96 -12 -127 -14 -31 -2 -65 -8 -75 -13 -19
-10 -97 -22 -178 -27 -27 -2 -63 -8 -78 -14 -16 -6 -45 -11 -66 -11 -21 0 -55
-7 -76 -16 -20 -8 -69 -17 -108 -20 -40 -2 -86 -9 -103 -15 -18 -5 -54 -14
-80 -19 -70 -13 -262 -50 -309 -59 -48 -10 -104 -24 -248 -62 -59 -16 -119
-29 -133 -29 -14 0 -34 -5 -46 -11 -11 -6 -49 -15 -84 -20 -36 -5 -83 -18
-104 -29 -22 -11 -55 -20 -73 -20 -19 0 -48 -7 -63 -15 -16 -8 -36 -15 -45
-15 -9 0 -33 -7 -52 -15 -20 -8 -49 -15 -65 -15 -16 0 -69 -16 -118 -35 -49
-19 -99 -35 -112 -35 -13 0 -44 -8 -70 -19 -26 -10 -72 -24 -102 -31 -30 -7
-69 -21 -86 -31 -17 -11 -40 -19 -51 -19 -11 0 -45 -11 -75 -24 -31 -14 -72
-28 -93 -32 -21 -4 -61 -15 -89 -25 -28 -11 -61 -19 -74 -19 -13 0 -51 -11
-85 -24 -34 -13 -87 -32 -117 -41 -30 -10 -68 -24 -85 -33 -16 -8 -43 -18 -60
-23 -59 -15 -117 -40 -153 -64 -20 -14 -43 -25 -52 -25 -8 0 -39 -14 -69 -30
-30 -17 -55 -30 -56 -30 -7 0 -25 61 -31 102 -4 30 -14 54 -30 69 -13 12 -24
33 -24 45 0 22 -60 205 -94 290 -9 23 -37 57 -62 78 -39 33 -54 39 -107 43
-52 4 -65 2 -78 -13 -39 -46 -64 -195 -37 -222 7 -7 16 -43 20 -80 3 -37 14
-98 23 -137 9 -38 18 -101 20 -140 2 -38 7 -95 11 -125 4 -30 6 -66 5 -80 -1
-14 3 -39 9 -55 6 -16 13 -69 16 -117 3 -48 11 -103 19 -122 8 -18 17 -73 20
-122 9 -140 33 -325 49 -378 8 -27 12 -54 9 -59 -11 -17 -3 -120 13 -175 8
-29 15 -72 14 -95 0 -71 11 -171 22 -194 6 -12 8 -36 5 -55 -2 -18 0 -42 6
-53 10 -18 29 -173 42 -333 2 -29 9 -67 15 -85 5 -17 15 -86 20 -152 6 -66 12
-136 15 -155 3 -19 7 -66 10 -105 2 -38 9 -88 15 -110 13 -44 29 -153 34 -230
2 -27 11 -85 20 -129 8 -43 13 -82 11 -86 -3 -5 0 -21 6 -37 7 -15 16 -53 20
-83 5 -30 13 -75 19 -100 6 -25 14 -72 16 -105 l5 -60 -77 -45 c-43 -25 -96
-56 -119 -68 -22 -13 -51 -34 -65 -47 -14 -12 -45 -33 -70 -45 -60 -30 -167
-107 -185 -133 -8 -12 -15 -41 -15 -65 0 -36 5 -48 31 -72 17 -15 51 -33 75
-39 51 -13 136 -14 149 -3 12 10 96 37 108 34 4 -1 24 5 45 14 20 8 66 21 102
29 36 8 72 16 81 20 13 5 19 -9 33 -72 9 -43 21 -103 26 -133 5 -30 13 -79 19
-109 6 -30 8 -65 5 -77 -3 -12 1 -35 10 -52 8 -16 13 -31 11 -34 -3 -2 0 -31
5 -64 5 -32 11 -93 15 -134 3 -41 10 -79 15 -85 4 -5 13 -62 19 -125 13 -149
30 -272 46 -335 7 -27 18 -81 24 -120 21 -137 38 -220 50 -245 6 -14 18 -56
25 -95 25 -124 38 -159 71 -190 37 -34 45 -55 55 -140 4 -33 15 -85 25 -115
16 -53 21 -80 44 -255 29 -215 39 -276 56 -350 9 -38 16 -101 16 -140 -1 -38
6 -104 14 -145 9 -41 15 -91 15 -110 0 -63 8 -164 18 -229 6 -35 8 -70 5 -77
-2 -7 0 -21 6 -31 5 -11 12 -53 16 -94 3 -41 10 -96 15 -124 11 -59 29 -176
35 -223 2 -18 7 -38 11 -44 4 -6 11 -41 15 -77 10 -89 24 -148 38 -165 7 -8
15 -36 18 -63 2 -26 9 -55 13 -64 10 -17 36 -96 70 -209 24 -78 49 -146 81
-216 10 -23 22 -56 26 -75 3 -19 21 -56 38 -84 18 -27 36 -61 40 -75 10 -30
45 -81 65 -95 8 -5 44 -18 79 -27 73 -19 92 -14 116 32 9 17 20 30 26 30 5 0
17 16 25 36 16 37 13 68 -13 164 -23 84 -32 122 -38 162 -5 36 -5 36 42 53 58
21 93 57 93 94 0 34 -27 115 -52 156 -10 17 -18 43 -18 58 0 16 -6 41 -14 55
-8 15 -19 47 -26 72 -7 25 -16 53 -21 63 -6 10 -7 27 -4 37 3 11 0 32 -8 47
-8 15 -24 69 -36 118 -12 50 -28 113 -36 140 -7 28 -19 70 -26 95 -6 25 -19
65 -29 90 -21 53 -31 93 -35 138 -2 18 -9 40 -16 48 -12 15 -29 94 -30 138 0
10 -11 44 -24 75 -13 31 -28 84 -35 119 -6 34 -18 81 -26 104 -14 41 -46 177
-64 280 -5 27 -12 52 -15 58 -6 9 -16 76 -32 200 -3 25 -9 50 -15 57 -5 6 -11
24 -14 40 -2 15 -11 62 -19 103 -24 127 -38 322 -49 720 -2 80 -7 179 -10 220
-6 64 -17 274 -17 320 0 27 -20 203 -35 315 -9 61 -17 142 -19 180 -4 87 -10
133 -24 215 -7 36 -20 138 -30 228 -10 90 -24 169 -30 175 -6 6 -11 23 -11 39
0 29 23 48 60 48 12 0 34 8 48 19 15 10 44 21 64 24 20 3 54 13 75 22 21 9 53
23 71 31 18 8 46 14 62 14 17 0 59 13 93 30 35 16 72 30 81 30 9 0 33 8 54 19
20 10 63 26 94 35 31 9 60 20 63 25 3 6 30 15 59 21 30 6 76 22 103 34 26 13
64 27 83 30 31 7 56 16 125 46 64 28 154 60 171 60 19 1 49 11 189 64 38 14
77 26 87 26 9 0 29 10 45 23 15 13 55 31 88 40 33 10 69 22 80 27 11 4 40 15
65 23 111 36 235 91 245 107 4 6 16 10 29 10 28 0 104 24 171 55 28 12 71 32
98 44 26 11 56 21 66 21 9 0 54 16 98 35 45 19 88 35 97 35 9 0 33 9 53 20 21
11 45 20 53 20 9 0 36 10 61 22 24 12 80 36 124 54 100 41 131 77 141 165 6
50 10 61 33 72 138 71 171 92 204 127 38 40 45 73 31 128 -7 25 -98 72 -138
73 -36 0 -204 -49 -249 -72 -10 -5 -50 -21 -90 -35 -89 -32 -268 -104 -282
-113 -5 -4 -50 -20 -100 -35 -49 -16 -104 -34 -122 -42 -17 -8 -37 -14 -45
-14 -8 0 -18 -4 -24 -9 -5 -5 -48 -11 -96 -13 -63 -3 -93 -9 -106 -21 -10 -9
-26 -17 -35 -17 -9 0 -31 -6 -49 -14 -53 -22 -103 -36 -129 -36 -13 0 -35 -9
-49 -20 -14 -11 -33 -20 -42 -20 -9 0 -38 -9 -65 -21 -26 -11 -88 -34 -138
-51 -49 -16 -94 -33 -100 -38 -5 -4 -27 -11 -48 -15 -20 -4 -40 -11 -43 -16
-3 -5 -13 -9 -23 -9 -10 0 -40 -11 -67 -25 -27 -14 -56 -25 -65 -25 -9 0 -46
-13 -82 -30 -37 -16 -73 -30 -81 -30 -8 0 -38 -11 -68 -25 -29 -14 -63 -25
-76 -25 -12 0 -41 -9 -64 -21 -22 -11 -73 -31 -112 -44 -138 -46 -222 -76
-311 -114 -108 -46 -147 -60 -200 -73 -39 -10 -79 -26 -180 -73 -107 -50 -103
-50 -109 -2 -3 23 -5 92 -4 152 0 97 0 159 -1 230 0 11 -1 103 -1 205 -1 102
-1 194 -1 205 0 11 -2 106 -5 210 -3 105 -4 222 -3 260 3 94 3 93 -5 225 -8
132 -9 175 -6 210 3 28 -4 112 -19 265 -6 55 -10 134 -11 176 0 72 1 76 25 87
14 7 36 12 48 12 25 0 137 23 182 38 17 5 57 15 90 22 33 7 69 16 80 21 22 10
153 45 223 59 23 5 51 14 61 20 11 5 31 10 45 10 14 0 38 5 53 11 15 6 37 15
48 20 11 4 43 11 70 14 28 4 55 11 60 15 6 5 42 16 80 25 112 27 149 38 170
51 11 7 39 15 62 18 24 3 64 14 90 25 27 10 82 26 123 36 41 9 80 21 85 25 6
5 31 14 55 20 25 6 62 15 84 21 21 5 50 16 65 23 14 7 55 19 91 26 36 6 80 19
98 27 18 8 54 18 80 23 26 5 74 18 107 29 54 18 139 44 295 87 67 19 105 32
147 50 17 8 42 14 55 14 12 0 55 12 93 26 137 49 181 62 220 69 22 4 58 14 80
22 22 9 74 24 115 34 41 10 127 37 190 59 63 22 156 51 205 64 50 13 104 31
120 40 17 9 39 16 50 16 11 0 52 10 90 21 39 11 84 24 100 29 17 4 44 13 60
18 155 52 202 67 280 88 50 14 104 31 120 38 17 8 66 23 110 35 44 12 103 33
130 46 28 14 66 27 85 31 19 3 44 10 55 15 37 16 170 59 186 59 8 0 46 16 85
35 38 19 86 40 107 46 20 5 63 25 95 43 31 18 68 36 82 39 28 7 68 43 118 106
31 38 33 45 26 89 -13 90 -68 122 -212 122 -54 0 -101 -2 -104 -5z m-1875
-382 c-7 -2 -19 -2 -25 0 -7 3 -2 5 12 5 14 0 19 -2 13 -5z m-45 -8 c-6 -7
-122 -42 -198 -60 -30 -7 -75 -21 -100 -29 -133 -46 -233 -76 -255 -76 -13 0
-27 -4 -30 -10 -3 -5 -15 -10 -25 -10 -10 0 -61 -13 -112 -29 -100 -30 -140
-41 -263 -72 -44 -10 -114 -30 -155 -43 -41 -13 -106 -29 -145 -36 -81 -14
-136 -27 -185 -45 -32 -12 -55 -17 -195 -46 -146 -30 -252 -49 -355 -64 -63
-9 -151 -24 -195 -32 -44 -9 -107 -20 -140 -24 -33 -5 -96 -13 -140 -19 -81
-11 -223 -33 -305 -48 -25 -5 -54 -13 -65 -19 -22 -12 -117 -14 -110 -3 2 4
30 12 62 19 32 8 81 21 108 31 28 10 77 25 110 35 33 9 89 27 125 40 36 13 81
26 100 30 19 4 67 17 105 30 116 39 237 74 285 81 25 4 65 16 90 26 41 18 163
47 280 68 25 5 59 14 75 21 17 6 48 15 70 20 90 17 183 40 241 59 37 12 74 17
95 14 20 -4 52 1 79 11 25 10 70 21 100 26 30 4 82 12 116 17 34 5 76 15 95
21 19 6 66 15 104 21 39 5 106 17 150 25 44 8 118 20 165 26 47 5 96 12 110
13 14 2 70 9 125 16 55 6 102 14 104 16 2 2 22 4 44 4 22 0 38 -2 35 -5z
m-1381 -701 c-3 -3 -12 -4 -19 -1 -8 3 -5 6 6 6 11 1 17 -2 13 -5z m-1912
-299 c-16 -7 -32 -11 -35 -9 -7 8 24 24 45 23 15 0 13 -4 -10 -14z m-427 -170
c-5 -35 -15 -57 -33 -72 -36 -31 -43 -29 -50 15 -3 20 -11 55 -16 77 -24 92
-24 98 2 92 13 -3 40 -2 59 2 34 7 35 6 40 -28 3 -20 2 -58 -2 -86z m-18 -273
c0 -59 -16 -71 -24 -18 -4 25 -4 51 -1 56 12 19 25 -1 25 -38z"/>
<path d="M8230 10490 c-8 -5 -26 -10 -39 -10 -53 0 -206 -112 -238 -175 -9
-16 -31 -47 -49 -68 -19 -20 -34 -43 -34 -51 0 -8 -16 -37 -35 -66 -19 -29
-35 -60 -35 -70 0 -10 -9 -37 -20 -61 -12 -28 -20 -66 -20 -102 0 -32 -5 -68
-12 -80 -15 -28 -20 -106 -19 -342 0 -173 2 -218 15 -340 3 -22 7 -89 11 -150
3 -60 11 -144 17 -185 7 -41 12 -95 13 -120 0 -25 4 -54 8 -65 3 -11 9 -55 12
-98 2 -43 7 -82 10 -86 2 -5 7 -48 10 -97 3 -48 12 -120 19 -159 7 -38 11 -90
8 -113 -2 -27 2 -58 11 -80 9 -21 18 -62 21 -92 3 -30 11 -102 19 -160 8 -58
12 -110 10 -116 -2 -6 1 -24 7 -40 12 -30 41 -219 44 -289 1 -22 8 -57 15 -78
7 -21 11 -41 8 -43 -2 -3 0 -24 5 -47 5 -23 11 -60 14 -81 2 -21 10 -49 19
-62 8 -13 15 -31 16 -41 1 -36 54 -108 93 -127 l38 -19 -31 -15 c-18 -8 -36
-23 -42 -33 -5 -10 -23 -25 -38 -34 -16 -8 -35 -20 -43 -27 -7 -7 -31 -26 -53
-42 -22 -16 -64 -55 -92 -85 -65 -69 -67 -71 -125 -122 -27 -23 -48 -48 -48
-56 0 -7 -7 -16 -15 -20 -17 -6 -121 -214 -163 -323 -14 -36 -26 -87 -28 -115
-3 -54 -14 -110 -38 -192 -43 -151 -42 -532 2 -602 8 -14 16 -43 17 -65 3 -52
81 -188 150 -264 63 -68 173 -152 253 -192 33 -16 63 -34 67 -39 3 -5 20 -12
38 -16 17 -4 52 -13 77 -21 88 -27 176 -46 230 -50 30 -3 69 -8 85 -13 50 -15
107 -25 160 -26 85 -3 198 -15 238 -26 20 -5 41 -8 45 -5 5 3 116 7 248 10
170 3 257 9 300 21 33 8 76 15 95 14 37 -1 140 13 229 31 287 57 546 65 1110
35 72 -4 136 -1 205 10 55 8 136 20 180 24 44 5 92 15 107 21 22 10 38 9 99
-10 40 -12 86 -21 103 -21 150 3 183 8 232 34 29 15 56 27 62 27 5 0 15 7 22
16 8 8 29 22 48 29 18 8 59 42 89 75 30 32 63 62 72 65 9 3 25 20 36 37 10 18
36 53 58 78 22 25 46 61 54 80 9 19 24 45 34 58 10 13 22 40 25 61 4 20 13 46
21 57 13 20 32 132 37 214 10 158 20 263 27 305 5 28 12 120 15 205 3 85 8
159 11 164 4 5 8 39 9 75 2 36 6 122 10 191 7 150 7 150 0 320 -3 74 -8 185
-9 245 -5 145 -36 511 -47 555 -5 19 -12 82 -16 140 -3 58 -12 117 -20 132 -8
15 -14 46 -14 69 0 40 -3 63 -35 254 -9 50 -17 106 -20 125 -2 19 -9 62 -14
95 -6 33 -15 101 -20 151 -9 88 -19 140 -29 158 -2 4 -6 27 -7 50 -2 22 -10
84 -19 136 -10 52 -21 124 -25 160 -4 36 -20 117 -35 180 -15 63 -36 158 -47
210 -11 52 -25 115 -31 140 -6 25 -17 74 -24 110 -7 36 -17 81 -23 100 -6 19
-17 64 -26 100 -9 36 -23 72 -30 80 -8 9 -17 36 -21 60 -3 25 -13 55 -20 67
-8 12 -14 31 -14 41 0 11 -9 31 -20 45 -11 14 -28 43 -36 64 -23 53 -93 135
-205 237 -62 56 -87 66 -148 54 -24 -4 -60 -5 -81 -2 -43 7 -80 -9 -131 -57
-116 -107 -152 -148 -180 -205 -17 -34 -42 -72 -55 -85 -13 -12 -27 -38 -30
-58 -4 -20 -20 -55 -37 -78 -18 -25 -27 -48 -23 -58 3 -9 -3 -34 -14 -55 -11
-22 -20 -47 -20 -57 0 -10 -11 -42 -25 -71 -14 -30 -25 -68 -25 -85 -1 -18 -8
-50 -17 -72 -9 -22 -17 -62 -18 -90 -1 -27 -5 -61 -8 -74 -4 -14 -14 -56 -23
-95 -9 -39 -20 -83 -26 -98 -6 -15 -8 -34 -5 -41 5 -14 3 -32 -29 -247 -22
-151 -32 -254 -27 -263 3 -5 7 -33 9 -62 l4 -52 -38 -7 c-20 -3 -51 -6 -68 -6
-16 0 -39 -7 -50 -15 -10 -8 -26 -15 -34 -15 -18 0 -120 -101 -120 -118 0 -6
-9 -16 -19 -22 -20 -10 -81 -108 -81 -130 0 -6 -9 -23 -20 -37 -11 -14 -20
-36 -20 -49 0 -13 -9 -38 -20 -56 -11 -18 -20 -43 -20 -55 0 -13 -3 -23 -7
-22 -5 0 -37 46 -73 101 -82 128 -151 200 -237 245 -38 20 -79 44 -92 55 -20
15 -34 17 -90 12 -36 -4 -88 -17 -116 -30 -87 -41 -194 -156 -195 -209 0 -11
-7 -29 -16 -40 -13 -17 -16 -18 -24 -5 -5 8 -10 30 -10 48 0 18 -5 43 -12 55
-7 12 -15 47 -19 77 -5 30 -12 75 -18 100 -6 25 -17 77 -25 115 -8 39 -20 88
-25 110 -6 22 -14 69 -19 105 -5 36 -19 100 -31 143 -12 44 -19 87 -16 96 3
10 -1 34 -10 54 -8 20 -15 55 -15 77 0 23 -5 50 -11 61 -5 11 -12 45 -14 76
-3 31 -11 75 -19 97 -7 23 -19 66 -25 96 -12 58 -36 144 -53 195 -11 33 -22
76 -37 148 -6 26 -17 58 -26 70 -8 12 -15 40 -15 62 0 23 -8 53 -20 70 -11 17
-20 39 -20 50 0 11 -20 52 -44 90 -25 39 -60 102 -79 140 -27 56 -51 86 -111
140 -42 39 -90 77 -106 86 -17 9 -36 21 -43 28 -14 11 -162 41 -207 41 -14 0
-32 -5 -40 -10z m188 -353 c21 -16 47 -53 69 -99 20 -40 39 -75 44 -79 5 -3
21 -34 35 -70 14 -35 29 -68 34 -74 4 -5 14 -37 23 -70 8 -33 22 -73 31 -90 9
-16 16 -43 16 -59 0 -16 8 -54 19 -85 23 -70 40 -133 51 -191 4 -25 15 -72 23
-105 8 -33 18 -87 21 -120 4 -33 13 -80 21 -105 24 -82 71 -303 95 -455 6 -33
15 -72 21 -87 6 -15 11 -51 11 -80 1 -29 12 -88 25 -131 16 -49 23 -93 20
-115 -2 -20 2 -57 9 -82 8 -25 14 -57 14 -71 0 -14 11 -54 25 -89 14 -35 25
-84 25 -109 0 -53 19 -172 30 -186 5 -5 13 -44 19 -85 18 -122 31 -221 41
-290 4 -36 11 -77 15 -92 4 -16 6 -28 4 -29 -53 -7 -170 -20 -187 -20 -13 1
-41 -8 -62 -19 -22 -11 -59 -20 -82 -20 -43 0 -167 -35 -223 -63 -36 -18 -87
-36 -136 -48 -19 -4 -82 -31 -138 -59 -57 -28 -105 -49 -107 -47 -2 2 4 15 14
28 29 37 43 173 32 296 -5 57 -14 111 -19 122 -6 10 -8 21 -4 24 9 10 4 165
-7 184 -11 21 -35 173 -55 363 -9 74 -19 147 -24 162 -5 15 -7 35 -4 46 2 10
-1 39 -8 63 -6 24 -13 69 -14 99 -1 30 -10 109 -20 175 -9 66 -18 136 -20 155
-2 19 -9 71 -14 114 -6 43 -8 83 -5 88 3 5 -1 30 -9 56 -10 30 -14 78 -13 132
2 47 -1 99 -6 115 -6 17 -11 71 -13 120 -2 50 -6 133 -10 185 -11 171 -11 177
14 440 12 135 20 165 47 191 14 13 24 34 24 49 0 32 52 104 102 142 61 46 121
39 206 -25z m2980 -68 c9 -12 25 -29 35 -38 29 -25 85 -113 93 -146 4 -16 18
-50 30 -75 13 -25 28 -68 35 -95 34 -146 63 -255 80 -297 11 -26 19 -71 19
-100 1 -29 7 -71 15 -93 8 -22 17 -67 21 -100 4 -33 10 -67 15 -76 8 -17 15
-48 44 -214 8 -49 20 -103 25 -120 5 -16 14 -68 19 -115 10 -85 32 -220 52
-318 20 -97 38 -246 39 -311 0 -46 6 -73 20 -97 14 -22 20 -48 19 -81 -2 -65
11 -173 24 -198 6 -11 14 -76 18 -145 4 -69 13 -172 20 -230 7 -58 12 -131 11
-164 -1 -32 2 -64 7 -70 21 -25 33 -777 13 -836 -6 -19 -12 -64 -13 -100 -1
-36 -6 -101 -12 -146 -6 -52 -6 -87 0 -98 6 -11 6 -39 0 -74 -5 -31 -10 -84
-12 -117 -2 -33 -8 -105 -15 -160 -6 -55 -11 -112 -11 -127 1 -15 -3 -29 -9
-33 -5 -3 -10 -20 -10 -37 0 -16 -10 -43 -21 -60 -12 -16 -28 -50 -35 -75 -24
-79 -194 -242 -289 -275 -89 -32 -214 -2 -357 85 -61 37 -108 44 -152 23 -19
-9 -40 -16 -48 -16 -31 -1 -51 -29 -52 -74 l-1 -46 -45 -5 c-25 -3 -63 -9 -85
-12 -51 -8 -57 -8 -140 2 -38 4 -162 9 -275 11 -262 3 -256 3 -284 14 -14 5
-53 4 -97 -2 -41 -6 -87 -10 -104 -9 -16 0 -68 -8 -115 -18 -125 -28 -302 -61
-325 -61 -11 0 -47 -16 -80 -36 -41 -25 -73 -37 -100 -37 -84 -2 -480 15 -489
21 -6 3 -42 7 -82 8 -39 1 -81 7 -92 13 -11 6 -47 11 -79 11 -32 0 -93 7 -136
15 -43 8 -97 15 -120 15 -23 0 -60 9 -82 19 -23 10 -66 21 -96 25 -30 4 -68
16 -84 26 -17 11 -38 20 -48 20 -35 0 -123 54 -185 113 -49 47 -72 80 -103
147 -37 79 -41 93 -45 195 -7 159 -5 224 12 279 8 27 14 74 14 103 0 29 9 76
20 105 11 29 20 63 20 75 0 34 46 172 84 249 25 51 58 95 127 166 52 53 103
99 114 102 11 3 37 22 58 41 21 19 48 40 60 46 12 7 28 20 35 31 7 10 18 18
23 18 5 0 45 20 88 45 43 25 93 48 112 52 18 3 64 21 101 40 37 18 80 33 95
33 16 0 37 6 48 14 36 25 241 73 430 101 124 18 424 24 605 12 230 -16 354
-31 375 -47 6 -4 24 -10 40 -14 53 -13 194 -88 210 -112 14 -22 14 -27 -6 -66
-12 -24 -30 -52 -41 -63 -11 -11 -28 -35 -39 -53 -10 -18 -29 -36 -42 -41 -12
-5 -38 -26 -57 -46 -35 -36 -152 -119 -200 -141 -14 -6 -34 -21 -44 -33 -11
-11 -27 -21 -37 -21 -10 0 -31 -11 -47 -25 -17 -14 -34 -25 -38 -25 -5 0 -27
-14 -48 -30 -22 -17 -47 -30 -56 -30 -10 0 -28 -8 -41 -19 -13 -10 -42 -28
-64 -40 -22 -12 -60 -35 -85 -51 -25 -15 -51 -29 -58 -29 -7 -1 -32 -14 -55
-30 -62 -41 -346 -180 -387 -187 -67 -13 -118 -53 -154 -123 -21 -40 -20 -69
4 -119 26 -53 54 -72 107 -72 41 0 219 53 237 71 6 5 19 9 29 9 11 0 39 16 63
35 47 39 158 95 188 95 10 0 48 22 85 49 37 27 108 68 157 92 49 23 103 52
119 64 17 12 44 29 60 37 69 35 132 72 155 93 14 13 40 30 58 39 44 22 166
102 221 144 43 32 168 168 223 241 74 98 111 217 97 316 -10 74 -68 164 -129
200 -45 26 -127 85 -150 106 -24 22 -26 32 -29 129 -6 172 -8 191 -31 284 -19
80 -20 96 -10 155 7 36 13 77 15 91 1 14 7 43 14 65 26 83 31 102 31 126 0 51
71 213 121 277 25 32 58 52 76 45 28 -11 133 -187 133 -223 0 -9 9 -34 20 -55
36 -68 84 -188 87 -216 1 -14 9 -39 18 -55 8 -16 15 -48 15 -71 0 -24 11 -68
26 -100 17 -41 23 -67 19 -89 -3 -18 -1 -43 5 -55 12 -29 40 -195 44 -265 2
-29 6 -62 9 -75 9 -36 -8 -361 -20 -384 -14 -26 -33 -109 -33 -141 0 -31 -21
-73 -49 -98 -12 -11 -21 -31 -21 -48 0 -40 -20 -75 -73 -126 -51 -50 -104 -67
-155 -51 -23 8 -42 8 -60 1 -15 -6 -44 -13 -64 -17 -52 -8 -88 -53 -87 -108 1
-79 18 -108 89 -149 70 -41 105 -45 230 -29 66 8 215 91 239 133 9 15 26 32
38 37 24 11 93 137 93 169 0 10 11 33 24 51 14 19 28 48 31 65 11 53 37 126
46 132 5 3 9 18 9 33 0 15 7 36 15 47 8 10 15 39 15 64 0 25 4 60 10 79 16 58
15 436 -2 516 -9 39 -13 85 -11 103 3 20 -1 41 -10 56 -9 13 -15 36 -15 52 1
16 -2 40 -7 53 -4 13 -11 46 -15 75 -4 28 -15 78 -25 111 -9 33 -18 75 -20 93
-2 18 -8 38 -13 45 -6 7 -14 30 -18 52 -4 22 -19 67 -34 100 -14 33 -32 80
-39 105 -7 25 -24 68 -38 95 -14 28 -43 86 -65 129 l-41 80 -1 190 c-1 228 8
353 29 403 8 20 13 44 10 53 -3 10 4 44 16 75 12 32 23 79 24 104 5 70 22 179
40 246 9 33 20 76 24 95 5 19 13 46 19 60 6 14 16 49 21 78 6 29 20 70 31 92
11 22 20 47 20 56 0 9 8 31 19 48 10 17 27 54 37 81 10 28 29 68 43 90 27 43
120 145 133 145 5 0 16 -10 26 -21z m-1691 -2051 c16 -18 43 -51 59 -73 15
-22 41 -55 56 -73 15 -17 46 -69 68 -115 23 -45 63 -122 90 -172 27 -49 50
-101 50 -114 0 -26 6 -49 39 -151 11 -36 23 -92 26 -125 3 -33 8 -73 10 -88 5
-28 4 -29 -33 -23 -93 15 -241 26 -398 29 -94 3 -176 7 -182 11 -24 14 1 583
28 656 5 14 17 56 25 94 20 85 35 116 75 150 40 33 50 33 87 -6z"/>
<path d="M6349 9645 c-30 -14 -42 -29 -79 -108 -24 -51 -45 -110 -47 -132 -2
-42 -10 -71 -50 -199 -13 -44 -22 -89 -19 -102 3 -12 -1 -38 -9 -57 -8 -20
-16 -73 -18 -119 -2 -54 -10 -95 -21 -116 -10 -19 -15 -39 -13 -46 3 -7 -4
-33 -15 -57 -10 -24 -17 -55 -15 -68 3 -14 -4 -41 -14 -60 -10 -20 -19 -46
-19 -59 0 -13 -7 -39 -16 -57 -12 -26 -13 -38 -4 -54 8 -16 6 -34 -10 -83 -11
-34 -20 -70 -20 -80 0 -10 -4 -26 -9 -36 -5 -9 -17 -44 -26 -77 -10 -33 -22
-69 -28 -80 -13 -26 -57 -164 -57 -181 0 -8 -14 -44 -32 -81 -17 -37 -33 -90
-36 -117 -3 -28 -13 -62 -23 -75 -11 -13 -19 -38 -19 -55 -1 -17 -7 -42 -15
-56 -8 -14 -14 -39 -15 -56 0 -16 -7 -39 -15 -50 -8 -10 -15 -29 -15 -42 0
-13 -6 -35 -14 -50 -7 -15 -17 -49 -21 -77 -3 -27 -18 -77 -31 -111 -13 -33
-24 -70 -24 -82 0 -11 -4 -24 -10 -27 -5 -3 -10 -20 -10 -37 0 -16 -11 -52
-24 -78 -13 -27 -22 -50 -20 -53 2 -2 -3 -33 -12 -68 -8 -35 -18 -75 -21 -89
-2 -14 -8 -34 -12 -45 -20 -50 -31 -94 -31 -123 0 -18 -9 -48 -19 -68 l-20
-36 -20 41 c-12 22 -21 49 -21 60 0 12 -9 44 -20 73 -11 29 -20 64 -20 78 0
14 -7 34 -15 44 -8 11 -15 28 -15 38 0 10 -13 51 -29 91 -54 134 -73 185 -76
209 -4 34 -31 105 -64 172 -17 33 -28 63 -25 68 3 5 -4 24 -17 44 -18 30 -20
44 -15 94 13 110 -31 162 -145 174 -55 5 -70 3 -86 -11 -25 -22 -73 -132 -73
-166 0 -14 -11 -37 -24 -51 -15 -17 -25 -43 -29 -75 -3 -26 -15 -65 -27 -87
-17 -28 -21 -49 -17 -78 3 -24 0 -51 -7 -66 -8 -14 -19 -43 -26 -65 -7 -22
-22 -52 -32 -66 -13 -17 -20 -42 -20 -74 0 -26 -4 -55 -8 -64 -20 -36 -51
-148 -50 -178 0 -17 -9 -55 -21 -84 -12 -31 -18 -65 -15 -80 3 -15 -1 -35 -9
-45 -8 -11 -15 -34 -15 -52 0 -18 -5 -43 -12 -55 -6 -12 -13 -51 -13 -87 -1
-39 -9 -79 -19 -98 -9 -18 -14 -37 -11 -42 3 -4 -2 -30 -11 -55 -8 -26 -13
-57 -11 -69 3 -11 1 -43 -4 -71 -22 -111 -50 -312 -49 -344 0 -18 -3 -38 -9
-45 -5 -6 -12 -49 -16 -96 -4 -46 -11 -91 -15 -100 -5 -8 -16 -67 -25 -130
-10 -63 -21 -140 -26 -170 -5 -30 -13 -93 -19 -140 -6 -47 -17 -110 -25 -140
-8 -30 -14 -68 -14 -85 0 -29 -20 -162 -42 -275 -6 -30 -13 -89 -17 -130 -4
-41 -13 -84 -19 -96 -7 -12 -15 -52 -19 -90 -4 -38 -11 -76 -15 -86 -5 -9 -10
-57 -13 -107 -2 -61 -9 -99 -20 -116 -11 -17 -13 -31 -7 -48 6 -14 6 -29 0
-38 -5 -8 -9 -48 -9 -90 0 -42 -7 -95 -15 -118 -8 -23 -14 -54 -15 -69 -2 -94
-9 -212 -15 -251 -13 -82 -14 -125 -3 -138 6 -7 7 -32 3 -62 -10 -73 32 -133
103 -147 39 -8 157 37 167 64 5 13 13 4 33 -33 52 -96 91 -66 112 85 6 47 15
101 20 120 5 19 11 69 14 110 3 41 13 134 22 205 9 72 16 143 16 159 -1 16 4
38 11 50 6 11 13 46 14 76 3 77 30 287 39 302 5 7 9 42 10 78 1 36 4 76 7 90
8 31 15 94 28 225 5 55 14 136 20 180 5 44 11 103 14 130 2 28 8 86 14 130 6
44 14 116 16 160 3 44 12 125 20 180 8 55 17 153 20 219 3 65 8 122 11 127 7
12 23 136 30 234 2 39 9 81 15 95 5 14 12 42 14 64 3 21 12 62 20 90 8 28 19
92 26 141 6 50 16 101 21 115 15 36 47 199 48 237 0 18 7 53 16 79 9 26 17 60
19 75 2 16 8 36 13 46 5 10 15 58 21 106 7 48 17 100 22 115 l11 27 13 -25 c8
-14 19 -56 25 -95 7 -38 18 -80 26 -92 8 -12 14 -31 14 -42 0 -11 9 -44 19
-73 11 -29 25 -80 31 -113 7 -33 18 -67 24 -75 19 -23 56 -120 56 -146 0 -13
11 -47 23 -77 13 -29 27 -70 31 -92 4 -22 16 -54 27 -71 10 -17 19 -41 19 -53
0 -12 4 -29 9 -39 39 -74 112 -289 111 -325 0 -11 9 -30 20 -44 11 -14 20 -34
20 -45 0 -21 35 -134 50 -160 6 -10 10 -29 10 -42 0 -43 48 -168 76 -197 23
-24 36 -29 73 -29 25 0 63 5 84 11 34 9 42 18 63 65 25 56 31 122 15 152 -10
20 -47 202 -50 247 -4 61 -3 572 1 617 2 25 10 53 16 61 17 20 42 106 42 145
0 18 7 46 15 61 8 16 17 58 21 95 4 36 13 71 20 77 8 6 14 25 14 42 0 17 4 44
9 61 6 17 15 58 22 91 7 33 18 70 26 83 8 13 16 46 18 75 6 69 11 97 24 130 6
16 11 37 11 49 0 11 8 31 19 44 10 13 21 49 25 81 13 109 15 118 36 177 13 39
18 71 14 96 -4 26 -1 47 9 67 26 46 47 121 47 166 0 23 7 52 15 64 9 12 21 60
26 105 8 56 24 112 50 173 22 50 39 103 39 119 0 37 16 88 45 146 12 25 25 58
29 74 12 49 20 18 24 -87 6 -198 29 -627 41 -772 1 -16 4 -82 5 -145 2 -63 6
-133 9 -155 4 -22 9 -94 12 -159 3 -66 8 -123 10 -127 3 -4 7 -45 10 -91 9
-146 24 -320 35 -408 6 -47 12 -112 14 -145 1 -33 6 -85 10 -115 4 -30 9 -68
11 -85 17 -135 26 -208 30 -255 4 -56 20 -194 31 -285 3 -27 10 -55 15 -61 5
-7 9 -29 8 -50 -1 -22 4 -61 10 -89 30 -124 31 -129 57 -340 3 -27 10 -55 15
-61 6 -7 18 -82 29 -168 10 -86 22 -161 26 -168 4 -6 13 -52 21 -102 7 -50 19
-104 27 -121 7 -16 16 -63 20 -103 3 -41 11 -82 16 -92 6 -10 10 -40 10 -65 0
-26 6 -77 14 -114 21 -93 37 -219 35 -264 -1 -21 3 -43 9 -49 7 -7 12 -38 12
-70 0 -32 4 -66 10 -76 15 -26 26 -131 20 -190 -4 -37 -1 -60 8 -73 9 -12 12
-35 9 -57 -6 -56 22 -105 77 -131 48 -22 91 -27 100 -12 3 4 19 11 35 14 36 7
96 59 118 101 19 36 26 243 13 391 -22 254 -52 517 -65 573 -8 35 -15 80 -15
100 0 20 -7 72 -15 115 -8 42 -19 139 -25 215 -6 75 -16 166 -21 202 -6 36
-12 100 -14 143 -3 56 -10 88 -26 117 -21 36 -21 43 -10 95 7 30 9 60 6 66 -8
12 -13 56 -20 179 -6 100 -11 148 -25 250 -6 41 -12 102 -15 135 -2 33 -8 98
-13 145 -11 95 -29 291 -31 330 -5 119 -12 209 -22 262 -6 35 -10 71 -10 81 3
48 3 67 -3 132 -3 39 -11 122 -16 185 -6 63 -15 156 -21 205 -17 160 -29 288
-33 366 -2 42 -6 81 -9 86 -4 6 -9 50 -12 99 -3 49 -10 125 -16 169 -6 44 -12
111 -14 150 -3 81 -31 333 -39 355 -3 8 -7 42 -10 75 -3 33 -15 121 -26 195
-12 74 -25 169 -29 211 -4 42 -11 82 -16 89 -4 7 -7 34 -6 60 1 27 -4 61 -10
76 -11 27 -25 111 -34 199 -15 143 -49 243 -92 266 -14 7 -33 29 -43 49 -32
62 -63 83 -128 87 -36 2 -70 -3 -93 -12z"/>
<path d="M12036 3530 c-16 -5 -52 -12 -80 -15 -51 -6 -127 -19 -201 -35 -22
-5 -78 -14 -125 -21 -47 -6 -112 -19 -145 -29 -33 -10 -82 -21 -110 -24 -27
-4 -95 -18 -150 -32 -55 -14 -125 -30 -156 -34 -30 -4 -65 -12 -76 -18 -12 -7
-47 -14 -79 -18 -33 -4 -84 -13 -114 -21 -65 -17 -217 -45 -245 -45 -11 0 -38
-7 -61 -15 -22 -8 -44 -13 -50 -11 -9 3 -51 -8 -145 -37 -26 -8 -59 -15 -73
-15 -15 0 -53 -11 -86 -25 -41 -17 -78 -25 -119 -25 -33 0 -62 -4 -65 -9 -5
-8 -36 -19 -178 -62 -20 -7 -47 -9 -60 -6 -13 4 -36 2 -53 -3 -36 -11 -133
-35 -195 -48 -25 -6 -65 -18 -90 -27 -25 -9 -65 -19 -89 -21 -24 -3 -51 -9
-61 -14 -9 -5 -38 -11 -64 -15 -26 -3 -86 -15 -134 -26 -48 -12 -109 -23 -137
-26 -27 -2 -68 -13 -90 -23 -22 -10 -69 -22 -105 -25 -36 -4 -81 -13 -101 -20
-20 -8 -45 -11 -56 -9 -11 3 -38 -2 -59 -11 -38 -16 -84 -26 -210 -45 -34 -5
-79 -18 -100 -29 -22 -11 -71 -25 -110 -30 -93 -14 -195 -38 -257 -61 -27 -11
-71 -22 -96 -25 -63 -9 -172 -35 -196 -48 -11 -5 -51 -16 -90 -23 -106 -20
-142 -29 -240 -58 -49 -15 -112 -30 -139 -33 -28 -4 -61 -12 -75 -20 -15 -7
-39 -13 -54 -13 -15 0 -44 -8 -65 -19 -20 -10 -62 -24 -92 -31 -30 -6 -77 -18
-105 -26 -27 -8 -75 -19 -105 -24 -86 -15 -131 -27 -143 -39 -6 -6 -21 -11
-33 -11 -13 0 -26 -5 -29 -10 -3 -6 -19 -10 -35 -10 -16 0 -51 -7 -77 -17 -26
-9 -61 -17 -78 -19 -37 -4 -194 -46 -255 -69 -25 -9 -67 -21 -95 -26 -83 -15
-89 -17 -127 -33 -21 -9 -50 -16 -65 -16 -15 0 -48 -9 -72 -20 -24 -11 -61
-23 -83 -26 -21 -4 -56 -15 -76 -25 -20 -11 -53 -19 -74 -19 -20 0 -39 -4 -42
-9 -6 -9 -80 -35 -136 -46 -19 -4 -50 -16 -70 -26 -19 -10 -64 -23 -100 -30
-36 -6 -78 -17 -95 -24 -16 -7 -48 -17 -70 -23 -22 -5 -53 -15 -70 -20 -16 -6
-48 -15 -70 -21 -22 -5 -65 -17 -95 -25 -30 -8 -100 -27 -155 -42 -55 -14
-116 -32 -135 -39 -19 -8 -60 -19 -90 -25 -30 -7 -76 -18 -102 -26 -26 -8 -56
-14 -67 -14 -11 0 -44 -8 -73 -19 -29 -10 -73 -24 -98 -30 -61 -16 -181 -52
-205 -62 -11 -4 -54 -15 -95 -25 -41 -9 -101 -26 -132 -36 -32 -11 -66 -18
-75 -17 -21 3 -179 -44 -238 -71 -22 -10 -57 -23 -77 -28 -62 -17 -98 -48 -98
-87 0 -30 3 -34 47 -48 98 -31 424 -1 583 54 14 5 52 13 85 18 97 16 178 32
211 42 17 5 43 9 58 9 15 0 40 7 56 15 28 14 128 41 195 51 46 7 114 25 175
45 30 10 87 23 125 30 39 6 75 15 80 19 6 4 30 10 55 13 42 4 86 15 135 31 11
4 7 0 -9 -9 -16 -9 -53 -25 -82 -35 -30 -11 -64 -26 -76 -34 -12 -9 -30 -16
-40 -16 -9 0 -32 -13 -50 -28 -18 -16 -55 -37 -81 -47 -26 -10 -50 -22 -53
-26 -3 -5 -26 -18 -52 -29 -26 -12 -74 -39 -108 -61 -33 -21 -67 -39 -74 -39
-24 0 -120 -73 -166 -127 -57 -67 -64 -104 -33 -172 30 -69 52 -80 146 -83
118 -2 495 33 643 61 30 6 86 14 125 17 38 4 80 11 93 15 13 5 44 9 70 9 26 1
74 7 107 15 33 8 82 15 108 15 29 0 64 8 89 21 30 16 61 21 108 21 36 0 76 5
90 10 14 5 41 11 60 13 99 11 191 26 245 39 32 9 81 16 107 16 27 0 65 7 84
15 20 8 71 17 115 19 l78 4 -25 -39 c-13 -21 -24 -41 -24 -44 0 -4 -9 -26 -21
-51 l-20 -46 26 -51 c36 -67 48 -78 103 -89 49 -10 152 -20 187 -19 11 1 67 3
125 6 58 2 141 8 184 14 44 5 85 7 92 4 8 -3 28 1 46 8 36 13 110 23 283 39
61 6 140 20 177 32 37 12 71 19 75 15 3 -4 4 -8 2 -10 -48 -30 -212 -107 -228
-107 -29 0 -196 -97 -242 -141 -58 -55 -72 -90 -60 -155 6 -30 13 -59 16 -65
9 -14 82 -49 103 -49 31 0 116 32 138 51 11 11 24 19 28 19 4 0 21 9 37 21 16
11 41 24 57 29 72 23 113 42 155 70 25 16 51 30 58 31 8 0 32 11 54 24 52 31
177 91 240 116 28 11 91 40 142 65 50 24 97 44 104 44 14 0 123 47 245 106 39
19 86 37 105 40 19 4 55 18 81 30 26 13 58 24 71 24 14 0 30 7 37 15 7 8 22
15 34 15 12 0 37 11 57 24 19 13 53 29 75 35 21 6 65 24 97 41 32 16 66 30 76
30 9 0 36 9 59 20 22 11 47 20 54 20 7 0 49 18 93 40 44 22 86 40 92 40 7 0
54 20 105 45 51 25 98 45 104 45 7 0 25 15 42 34 25 29 29 42 30 97 1 35 -3
76 -9 90 -13 34 -68 59 -127 59 -48 0 -172 -30 -227 -55 -16 -8 -50 -18 -75
-23 -25 -6 -72 -18 -105 -27 -33 -9 -102 -27 -152 -40 -51 -13 -103 -31 -115
-39 -12 -9 -37 -16 -55 -16 -18 0 -47 -6 -65 -14 -57 -24 -102 -38 -143 -46
-22 -4 -59 -14 -81 -23 -23 -8 -68 -18 -99 -22 -32 -4 -90 -16 -129 -27 -79
-21 -196 -49 -331 -79 -49 -11 -117 -26 -150 -34 -33 -7 -87 -18 -120 -25 -33
-6 -73 -16 -90 -22 -47 -16 -211 -44 -341 -57 -38 -4 -76 -11 -83 -15 -7 -5
-54 -10 -104 -12 -84 -4 -89 -3 -62 9 17 8 48 26 69 41 21 14 51 26 66 26 15
0 44 11 64 25 20 14 42 25 47 25 6 0 23 6 37 14 62 32 142 59 209 71 40 7 87
18 105 23 18 6 76 18 128 27 52 9 109 21 125 27 33 11 83 22 165 36 30 6 103
24 162 42 98 28 244 59 373 79 28 4 73 19 101 33 28 15 64 26 80 26 16 0 56 9
89 20 33 11 86 22 117 25 31 3 72 12 90 20 18 9 47 18 63 20 80 14 169 39 205
57 21 11 56 20 76 20 39 0 89 13 139 36 17 8 57 18 90 23 65 9 200 45 253 67
18 8 42 14 54 14 22 0 100 21 174 46 62 22 103 70 117 140 7 33 11 66 9 74 -3
16 -58 57 -104 77 -27 12 -237 11 -333 -1 -22 -2 -74 -8 -115 -11 -41 -4 -88
-14 -104 -22 -15 -8 -37 -12 -48 -10 -10 3 -60 -4 -111 -15 -51 -11 -126 -25
-167 -32 -41 -7 -85 -18 -97 -24 -13 -7 -33 -10 -46 -7 -14 4 -42 -1 -63 -10
-21 -9 -46 -18 -54 -20 -90 -20 -116 -27 -125 -35 -5 -4 -37 -11 -70 -15 -33
-4 -80 -16 -105 -27 -25 -12 -72 -27 -105 -34 -61 -12 -93 -23 -177 -56 -26
-10 -55 -18 -65 -18 -27 0 -154 -40 -194 -61 -20 -10 -48 -19 -63 -19 -14 0
-42 -7 -63 -16 -64 -28 -76 -32 -138 -47 -33 -8 -73 -22 -90 -31 -16 -9 -41
-16 -55 -16 -14 0 -43 -9 -65 -19 -22 -10 -58 -21 -79 -25 -21 -4 -48 -14 -60
-21 -37 -24 -175 -65 -217 -65 -22 0 -50 -5 -62 -12 -12 -7 -40 -13 -62 -14
-39 -3 -132 -20 -270 -51 -38 -8 -93 -17 -122 -19 -30 -2 -63 -9 -74 -15 -12
-6 -30 -9 -40 -6 -11 3 -61 -6 -112 -20 -51 -14 -101 -26 -112 -27 -135 -13
-189 -20 -235 -34 -30 -8 -72 -14 -92 -13 -21 1 -48 -4 -60 -10 -34 -19 -189
-46 -313 -55 -38 -3 -79 -9 -90 -14 -11 -5 -40 -11 -65 -14 -53 -6 -212 -31
-292 -45 -32 -6 -84 -16 -115 -22 -81 -14 -233 -36 -233 -33 0 6 146 72 195
89 58 20 74 26 135 53 71 31 412 141 440 142 8 0 29 7 45 16 17 9 53 23 80 31
28 8 55 19 60 23 6 5 42 17 80 28 39 11 90 27 115 35 103 35 400 127 470 145
85 22 133 39 172 58 14 8 39 14 55 14 15 0 37 7 47 15 11 8 35 15 54 15 19 0
53 8 76 19 58 26 139 51 167 51 13 1 35 7 49 15 14 8 39 14 55 15 17 0 44 9
60 20 17 11 38 20 48 20 10 0 43 9 74 20 32 11 70 20 85 20 15 0 47 9 70 19
61 27 145 51 182 51 17 0 45 9 61 20 17 11 40 20 53 20 12 0 30 4 40 9 17 9
56 19 172 47 36 8 79 20 95 25 17 6 53 17 80 24 28 8 77 21 110 30 33 9 78 20
100 24 22 4 51 13 65 21 14 7 39 15 55 16 17 1 57 11 90 22 50 17 137 40 215
57 45 9 106 28 115 35 6 4 21 10 35 13 14 3 45 10 70 16 25 6 88 20 140 32 52
11 111 27 132 36 20 8 42 13 50 11 7 -3 62 12 123 33 60 22 122 39 138 39 15
0 38 5 50 12 12 6 38 15 57 19 19 4 60 15 90 24 30 9 78 20 105 25 64 12 123
29 155 45 14 7 44 15 67 19 24 3 62 13 85 21 24 7 55 16 70 19 15 2 42 9 60
15 18 5 53 15 78 21 25 6 68 18 95 25 28 8 82 21 120 30 65 15 132 32 329 84
44 12 91 21 105 21 14 0 59 11 101 24 103 33 205 62 265 74 28 5 82 20 120 32
39 12 97 26 130 29 33 4 74 14 90 23 17 8 57 19 89 23 33 4 116 18 185 31 69
13 140 24 157 24 18 0 45 6 61 14 15 8 43 20 61 27 18 6 46 24 62 39 26 24 30
35 30 79 0 64 -20 114 -55 137 -30 20 -153 29 -199 14z"/>
</g>
</svg>
